<svg version="1.1" id="Layer_1" xmlns="http://www.w3.org/2000/svg" xmlns:xlink="http://www.w3.org/1999/xlink" x="0px" y="0px"
	 width="100%" viewBox="0 0 417 598" enable-background="new 0 0 417 598" xml:space="preserve">
<path fill="#FEFEFE" opacity="1.000000" stroke="none" 
	d="
M205.000000,599.000000 
	C136.666687,599.000000 68.833366,599.000000 1.000036,599.000000 
	C1.000024,399.666718 1.000024,200.333466 1.000012,1.000143 
	C139.999893,1.000096 278.999786,1.000096 417.999756,1.000048 
	C417.999847,200.333191 417.999847,399.666382 417.999939,598.999756 
	C347.166656,599.000000 276.333344,599.000000 205.000000,599.000000 
M371.909149,577.923645 
	C374.261353,577.884705 376.613586,577.845764 379.881317,577.989807 
	C383.042694,577.998901 386.229187,578.239746 389.352905,577.901367 
	C390.576782,577.768738 391.660004,576.337585 392.885071,575.440918 
	C387.651978,575.721069 383.289215,575.954651 378.489655,575.448059 
	C378.325836,567.317017 376.960266,559.114624 379.513184,551.011169 
	C376.644897,551.011169 373.357391,551.011169 370.769745,551.011169 
	C372.590698,559.394470 372.248749,567.759644 370.470947,576.432678 
	C369.813934,576.802002 369.156891,577.171326 367.470947,578.118896 
	C369.482697,577.942688 370.258606,577.874756 371.909149,577.923645 
M108.874054,577.925781 
	C111.102547,577.925781 113.331039,577.925781 115.059166,577.925781 
	C115.059166,573.216064 115.059166,569.176636 115.797333,564.755432 
	C118.293785,566.135254 120.790230,567.515076 122.830742,568.642883 
	C122.830742,566.118896 122.830742,562.288818 122.830742,558.458801 
	C121.343117,562.089905 118.998459,563.789856 115.142403,561.905457 
	C115.144989,560.243591 115.329979,558.557678 115.113922,556.924744 
	C114.589523,552.961304 116.235367,550.928955 120.084023,552.077698 
	C123.302818,553.038452 126.237732,554.950256 128.729126,556.163635 
	C128.729126,555.341797 128.729126,553.253479 128.729126,551.012695 
	C121.358566,551.012695 114.253105,551.012695 107.702202,551.012695 
	C109.560440,559.372498 109.157036,567.754639 107.472137,576.438904 
	C106.814575,576.804260 106.157005,577.169617 104.458817,578.113098 
	C106.480675,577.938904 107.256363,577.872070 108.874054,577.925781 
M330.590149,578.098877 
	C330.666626,577.730957 330.743103,577.362976 330.935974,576.104126 
	C330.869598,573.415649 330.803253,570.727173 330.931152,567.118958 
	C331.139374,561.727844 331.347565,556.336670 331.552948,551.019348 
	C330.458862,551.019348 328.362000,551.019348 325.954956,551.019348 
	C329.306793,553.716370 330.150818,561.734375 327.719940,566.687744 
	C324.521179,562.916565 321.302979,559.161743 318.128326,555.370361 
	C313.691956,550.072021 313.689972,550.054932 307.101288,551.367615 
	C307.812103,553.206421 308.538025,555.084290 309.069794,557.885864 
	C309.058868,562.513916 309.238922,567.153931 308.950562,571.764587 
	C308.820496,573.844055 307.756897,575.865173 307.163422,577.763733 
	C308.684814,577.763733 311.330505,577.763733 313.092529,577.763733 
	C312.390991,575.794373 311.214264,573.897644 311.119171,571.948303 
	C310.878174,567.005798 311.122253,562.039734 311.767151,557.345398 
	C317.844208,564.224365 323.921265,571.103333 330.590149,578.098877 
M345.511230,560.668213 
	C345.022339,562.018250 344.533417,563.368225 343.402618,565.088257 
	C342.348145,567.295227 341.293640,569.502258 339.879181,572.462646 
	C344.250641,569.443542 351.719025,569.093689 353.073425,571.417664 
	C354.498322,573.862549 355.176453,576.320557 351.686310,577.730164 
	C355.620422,577.730164 359.520050,577.730164 362.884338,577.730164 
	C358.686340,568.537903 354.485718,559.339905 349.637360,548.723511 
	C348.122040,553.430359 347.036346,556.802734 345.511230,560.668213 
M186.070389,413.993286 
	C132.823730,413.993286 79.577057,413.993286 26.273724,413.993286 
	C26.273724,455.659088 26.273724,496.717987 26.273724,537.827026 
	C148.911011,537.827026 271.260956,537.827026 393.689697,537.827026 
	C393.689697,496.473175 393.689697,455.418793 393.689697,414.004578 
	C391.445862,414.004578 389.479126,414.005463 387.512390,414.004456 
	C329.704224,413.975006 271.896027,413.945343 214.104614,413.200806 
	C216.448181,406.853699 218.892212,400.541260 221.101425,394.147736 
	C222.678162,389.584564 224.944473,385.724091 229.080338,383.828735 
	C233.799759,386.001770 238.010284,388.446014 242.534821,389.938019 
	C264.509857,397.184570 285.971222,394.707977 306.323273,384.567474 
	C334.579712,370.488617 353.384460,346.869568 367.644745,319.593048 
	C380.855347,294.324432 389.205170,267.236725 393.815704,239.077957 
	C394.993958,231.881821 395.416931,224.562027 396.065125,218.447586 
	C387.754547,225.174667 380.103302,233.498901 370.680939,238.458160 
	C358.781769,244.720993 345.657166,248.989563 332.669800,252.775894 
	C310.920258,259.116730 288.360657,262.588989 267.440826,271.891541 
	C242.513046,282.976379 224.461197,300.375000 215.722290,326.661438 
	C211.820312,338.398468 209.893723,350.340942 214.320831,362.254883 
	C216.244583,367.431915 214.316086,370.639709 210.931000,374.675140 
	C207.891617,370.212860 205.282562,366.828033 207.155731,360.934967 
	C208.964523,355.244415 209.556732,348.839355 209.182114,342.841919 
	C207.877457,321.955719 196.888458,306.151093 180.596313,294.198242 
	C157.650833,277.364136 131.070663,268.903900 103.404083,264.124512 
	C83.246635,260.642303 63.911095,255.271332 46.360512,244.640030 
	C38.751381,240.030777 31.679647,234.534393 24.182196,229.314499 
	C29.091131,268.795288 40.389294,306.137878 62.471703,339.519318 
	C79.419762,365.139313 101.803246,384.015961 132.833313,390.514557 
	C151.138794,394.348267 169.116806,394.719269 185.958008,384.725586 
	C190.380386,382.101257 192.588272,383.155090 193.965530,388.216431 
	C196.671677,398.161316 193.415558,406.469238 186.070389,413.993286 
M186.046265,96.514198 
	C179.538254,105.912880 173.193344,115.429993 166.478516,124.678513 
	C159.064041,134.890686 150.687958,144.454330 143.854965,155.027054 
	C134.344635,169.742432 126.756752,185.474792 126.825211,203.646912 
	C126.929283,231.274719 136.870987,254.283218 159.852600,270.469666 
	C174.985031,281.127777 192.408340,283.726807 210.585770,283.104584 
	C236.205032,282.227570 257.106445,272.339630 271.012268,250.483200 
	C287.955872,223.852158 288.778442,195.868988 275.245483,167.525177 
	C267.379852,151.051132 255.631104,137.163818 244.610901,122.787437 
	C230.894653,104.893913 219.459824,85.642471 213.362152,63.759331 
	C210.474289,53.395401 208.845474,42.680637 206.646225,32.124825 
	C202.251175,54.205948 197.066254,75.897087 186.046265,96.514198 
M313.690887,189.499878 
	C313.648956,202.991714 313.834839,216.489487 313.482727,229.973221 
	C313.258514,238.558167 311.910980,239.583878 303.472351,241.321136 
	C302.017761,241.620590 300.712189,242.643768 299.337769,243.332642 
	C299.546509,243.789413 299.755249,244.246170 299.963989,244.702942 
	C316.846680,244.702942 333.729340,244.702942 350.612000,244.702942 
	C350.793091,244.128143 350.974182,243.553345 351.155273,242.978546 
	C349.171478,242.351898 347.222717,241.365921 345.197083,241.168335 
	C339.881073,240.649811 336.984283,238.065399 336.779510,232.623703 
	C336.692047,230.300171 336.333496,227.981918 336.329926,225.660904 
	C336.294922,203.005936 336.308990,180.350891 336.309052,157.695877 
	C336.309052,155.911453 336.309052,154.127029 336.309052,152.390152 
	C351.605316,151.279205 360.979706,158.433197 364.087463,172.848923 
	C364.387970,174.242874 365.915558,175.372284 366.873535,176.624496 
	C367.193939,176.301880 367.514374,175.979263 367.834778,175.656662 
	C367.834778,166.428589 367.834778,157.200531 367.834778,148.103455 
	C339.005463,148.103455 310.609406,148.103455 281.369110,148.103455 
	C281.369110,156.717377 281.310059,165.018585 281.447021,173.316559 
	C281.463348,174.306503 282.547577,175.278839 283.136810,176.259338 
	C284.020630,175.488174 285.069580,174.834076 285.729034,173.903824 
	C286.154602,173.303528 285.944763,172.283661 286.129059,171.476822 
	C289.138580,158.302567 300.398254,150.481735 313.690826,152.677933 
	C313.690826,164.568832 313.690826,176.534348 313.690887,189.499878 
M81.002914,207.500000 
	C81.002892,214.827271 81.008156,222.154556 81.001450,229.481827 
	C80.993782,237.862610 79.617393,239.460846 71.486092,241.214966 
	C70.027252,241.529678 68.737534,242.628296 67.369736,243.364990 
	C67.590134,243.806976 67.810539,244.248978 68.030945,244.690964 
	C84.558022,244.690964 101.085106,244.690964 117.612190,244.690964 
	C117.786179,244.178650 117.960175,243.666336 118.134163,243.154022 
	C116.657944,242.522278 115.236984,241.603226 113.696266,241.306885 
	C105.594002,239.748566 104.046921,237.995514 104.041000,229.676025 
	C104.025337,207.694077 104.031998,185.712143 104.037598,163.730194 
	C104.039963,154.445984 105.872475,152.368317 114.903870,150.975601 
	C115.907494,150.820816 116.782936,149.834839 117.717819,149.234329 
	C116.664589,148.751190 115.614021,147.854111 114.557747,147.847336 
	C100.070190,147.754440 85.581535,147.745132 71.094337,147.862106 
	C69.991241,147.871002 68.897095,148.988739 67.798798,149.591080 
	C68.834457,150.098114 69.821716,150.870880 70.913513,151.069717 
	C78.941856,152.531952 80.997963,154.907272 81.001259,163.035782 
	C81.007126,177.523849 81.002983,192.011917 81.002914,207.500000 
M141.536835,577.951721 
	C143.701248,577.951721 145.865662,577.951721 146.595840,577.951721 
	C145.919205,573.903381 145.221115,569.726685 144.523026,565.549927 
	C145.097031,565.348083 145.671036,565.146179 146.245056,564.944336 
	C148.068512,567.605713 150.163696,570.124268 151.653763,572.960815 
	C154.083344,577.585754 157.554764,579.033508 162.664398,577.479553 
	C159.588989,573.258423 156.595016,569.149048 154.517258,566.297241 
	C156.668610,562.587097 159.741989,559.618347 159.531006,556.904846 
	C159.365540,554.776428 155.347366,551.728333 152.669556,551.273193 
	C147.418762,550.380859 141.909210,551.010925 136.205612,551.010925 
	C139.907898,555.732971 139.306717,574.503540 135.511108,577.951721 
	C137.334579,577.951721 138.997253,577.951721 141.536835,577.951721 
M189.905029,556.109131 
	C189.905029,559.757202 189.905029,563.405212 189.905029,567.053284 
	C185.436981,563.294067 181.867554,559.574402 178.904770,555.421875 
	C175.801376,551.072327 172.042664,549.807983 167.059219,551.273071 
	C170.587036,555.262573 171.221344,571.899719 167.841202,577.937683 
	C169.424927,577.840332 170.702438,577.761780 171.529282,577.710938 
	C171.529282,570.601074 171.529282,564.124207 171.529282,556.671631 
	C178.180237,564.341125 184.264130,571.356812 190.348022,578.372437 
	C190.897476,578.212341 191.446945,578.052307 191.996399,577.892212 
	C191.996399,568.928223 191.996399,559.964172 191.996399,551.171509 
	C190.868134,551.171509 189.039398,551.171509 187.660233,551.171509 
	C188.431732,552.595703 189.157578,553.935669 189.905029,556.109131 
M69.809380,550.849670 
	C68.271057,550.849670 66.732727,550.849670 65.357964,550.849670 
	C69.732101,556.137573 67.105133,561.701050 67.289238,567.059265 
	C63.453979,563.373901 59.899689,559.673584 56.982071,555.525452 
	C53.876137,551.109619 50.052883,549.865601 45.732281,551.054810 
	C49.584869,559.831604 47.826118,568.677124 46.930859,577.729736 
	C47.340450,577.729736 48.558208,577.729736 49.567959,577.729736 
	C49.567959,570.821289 49.567959,564.183716 49.567959,556.720215 
	C56.146767,564.332703 62.205967,571.343872 69.093422,579.313477 
	C69.093422,574.615295 68.935349,571.450012 69.127686,568.306091 
	C69.483070,562.497192 70.043823,556.700928 69.809380,550.849670 
M95.775894,552.163269 
	C97.562050,553.849915 99.348213,555.536499 100.913589,557.014648 
	C100.913589,555.261108 100.913589,553.189514 100.913589,551.197937 
	C92.531670,551.197937 84.474503,551.197937 76.389893,551.197937 
	C76.389893,553.569946 76.389893,555.579224 76.389893,559.259460 
	C78.531387,554.161560 80.610062,551.126404 85.861641,552.404968 
	C84.322021,560.957947 88.225723,569.845886 83.268509,577.780762 
	C86.921028,577.780762 90.986717,577.780762 94.387634,577.780762 
	C93.638893,576.078064 92.284904,574.349121 92.200386,572.560181 
	C91.918121,566.585693 91.972107,560.584839 92.216263,554.607117 
	C92.252861,553.711243 93.996086,552.885071 95.775894,552.163269 
M230.644028,550.842407 
	C228.874680,550.842407 227.105316,550.842407 225.282898,550.842407 
	C225.282898,553.389404 225.282898,555.277344 225.282898,558.315369 
	C227.494537,553.850830 229.780228,550.994690 234.663437,552.378967 
	C234.663437,559.240356 234.857346,566.041748 234.532532,572.818359 
	C234.447083,574.601135 232.756531,576.307007 231.928223,577.819580 
	C235.618469,577.819580 239.865845,577.819580 244.307892,577.819580 
	C240.656937,575.403259 239.555450,564.693481 241.468369,552.198059 
	C246.229996,550.762695 247.735977,554.638123 249.756317,557.822266 
	C249.756317,555.283936 249.756317,553.203064 249.756317,550.847534 
	C243.513031,550.847534 237.560913,550.847534 230.644028,550.842407 
M37.022427,559.677734 
	C37.337738,556.803772 37.653053,553.929810 37.967209,551.066406 
	C35.297264,551.066406 31.888107,551.066406 28.330349,551.066406 
	C31.426018,555.908325 30.883757,574.477722 27.648504,577.898010 
	C31.846777,577.898010 35.986126,577.898010 39.166637,577.898010 
	C38.485229,575.889160 37.332867,573.773804 37.117706,571.567200 
	C36.765373,567.953674 37.022472,564.280762 37.022427,559.677734 
M205.053238,570.005920 
	C206.712891,570.003784 208.462296,569.672852 210.006348,570.094299 
	C211.479889,570.496460 213.389282,571.395203 213.921890,572.599670 
	C214.530563,573.976257 213.830917,575.931458 213.696609,577.676514 
	C216.551559,577.676514 220.351151,577.676514 223.292206,577.676514 
	C219.132950,568.552917 214.928741,559.330811 210.464203,549.537537 
	C208.385071,553.734375 206.705414,557.124817 205.025757,560.515320 
	C205.247375,560.692200 205.468994,560.869080 205.690598,561.045959 
	C206.526764,560.445801 207.362915,559.845581 208.413742,559.091309 
	C209.744492,562.352539 210.950027,565.307007 212.657425,569.491272 
	C208.628738,568.644043 205.866318,568.063110 202.826340,567.423767 
	C202.593216,567.921326 201.937927,569.320007 200.997711,571.326843 
	C202.501205,570.719666 203.361298,570.372314 205.053238,570.005920 
M259.728027,577.945679 
	C262.240234,577.945679 264.752441,577.945679 267.905243,577.945679 
	C263.686310,574.660706 262.770050,556.730835 265.909546,551.062073 
	C262.620667,551.062073 259.358521,551.062073 255.933182,551.062073 
	C259.558716,555.755859 258.677826,575.023376 254.731827,577.945679 
	C256.213196,577.945679 257.541229,577.945679 259.728027,577.945679 
M294.292084,568.143921 
	C292.795898,571.521484 291.299713,574.899109 289.904602,578.048523 
	C294.373871,578.120178 298.162140,575.180054 300.537903,570.450378 
	C303.056854,565.435669 302.412109,560.453003 299.129364,555.913635 
	C296.354126,552.076050 293.339844,550.800903 289.712738,551.550537 
	C294.789307,555.654785 294.676331,561.447144 294.292084,568.143921 
M272.452698,566.869385 
	C274.437317,574.125977 278.250183,577.569214 284.527985,577.774170 
	C278.170990,571.566345 277.791840,559.208313 283.715790,551.299988 
	C276.696289,551.272400 272.092987,557.204895 272.452698,566.869385 
M119.152130,576.908508 
	C118.206680,577.012512 117.261223,577.116516 116.315765,577.220459 
	C119.694153,578.013123 123.006592,578.093933 126.310829,577.964966 
	C127.325882,577.925293 129.085220,577.429810 129.161026,576.936768 
	C129.316269,575.927002 128.562317,574.777527 128.578308,574.823486 
	C125.245850,575.623047 122.604462,576.256775 119.152130,576.908508 
M285.483337,551.593262 
	C285.483337,551.593262 285.412018,551.476318 285.483337,551.593262 
z"/>
<path fill="#7A4A34" opacity="1.000000" stroke="none" 
	d="
M214.087860,413.915710 
	C271.896027,413.945343 329.704224,413.975006 387.512390,414.004456 
	C389.479126,414.005463 391.445862,414.004578 393.689697,414.004578 
	C393.689697,455.418793 393.689697,496.473175 393.689697,537.827026 
	C271.260956,537.827026 148.911011,537.827026 26.273724,537.827026 
	C26.273724,496.717987 26.273724,455.659088 26.273724,413.993286 
	C79.577057,413.993286 132.823730,413.993286 186.992035,413.983093 
	C190.967957,414.014343 194.022217,414.055817 197.023560,414.462341 
	C195.600433,424.355591 188.309799,427.646851 180.480148,429.905273 
	C171.258728,432.565155 161.872986,434.654572 152.561386,437.002747 
	C135.889221,441.207062 119.541496,443.947357 103.518097,433.848633 
	C97.265427,429.907928 90.117462,431.831482 83.695404,435.762207 
	C76.921494,439.908325 69.901230,443.658325 62.921955,447.458984 
	C60.603657,448.721436 57.882996,449.313995 55.721718,450.770050 
	C54.410652,451.653351 53.818878,453.604309 52.903969,455.075623 
	C54.465107,455.516083 56.058994,456.395233 57.578766,456.281769 
	C59.326508,456.151245 61.111240,455.334137 62.701996,454.482819 
	C70.597198,450.257568 78.546783,446.113831 86.249908,441.557098 
	C91.114738,438.679321 95.921257,437.090240 101.324593,439.434113 
	C106.432045,441.649567 111.447495,444.077148 116.907204,446.597839 
	C108.273819,454.309540 102.780128,463.567688 99.998215,474.522156 
	C98.535057,480.283691 96.599403,485.933685 94.696732,491.573181 
	C92.040268,499.446899 86.235252,503.156616 78.247017,504.974670 
	C67.474792,507.426392 56.909065,510.796173 46.281693,513.865356 
	C43.919796,514.547546 40.878544,515.334656 42.118244,518.760010 
	C43.568626,522.767395 46.479759,520.252014 48.803738,519.616028 
	C59.316883,516.739014 69.758430,513.579773 80.333611,510.957123 
	C87.418732,509.200012 93.818588,506.425873 97.149704,499.727020 
	C100.293358,493.405151 103.300018,486.785980 104.855858,479.953522 
	C107.707603,467.430145 113.531052,457.062988 123.492287,449.040680 
	C124.688667,448.077179 126.300613,447.352539 127.815392,447.107666 
	C135.992493,445.785767 144.287048,445.062653 152.375122,443.349396 
	C163.323135,441.030334 174.120697,438.000916 184.837051,435.312805 
	C186.135635,439.756653 186.831589,444.297241 188.781464,448.213501 
	C190.795792,452.259186 194.028839,455.698120 197.471313,460.421326 
	C192.665771,466.118500 187.881958,472.231689 182.625351,477.906952 
	C176.431335,484.594299 171.765259,491.850250 172.138763,501.303406 
	C172.199783,502.848114 173.935165,504.326691 174.896667,505.835815 
	C175.990646,504.470551 177.953033,503.156433 178.036957,501.731689 
	C178.561600,492.823853 182.797226,486.088104 189.100525,480.128387 
	C192.449722,476.961761 195.812378,473.438354 197.923508,469.421448 
	C200.977615,463.610260 204.336075,461.236298 211.266907,462.821716 
	C220.441086,464.920319 229.972992,465.402191 239.258652,467.088379 
	C244.028290,467.954529 246.879196,471.350098 246.053864,476.508331 
	C245.351181,480.899994 244.150070,485.219788 243.029678,489.535065 
	C240.696136,498.522858 245.040878,508.163849 253.488083,511.855988 
	C254.725891,512.396973 256.607971,511.463989 258.191925,511.213013 
	C257.699066,509.703125 257.674255,507.629059 256.640381,506.771301 
	C247.103058,498.858734 246.823730,498.204529 250.240875,486.469208 
	C250.565964,485.352753 250.895889,484.237427 251.198914,483.114929 
	C254.553741,470.688019 250.203339,462.752197 237.725235,460.165527 
	C229.628769,458.487152 221.308167,457.548157 213.043320,457.097656 
	C197.662094,456.259277 192.546204,446.889709 191.928680,434.523987 
	C191.872406,433.397308 192.381729,431.928375 193.156876,431.134155 
	C195.319977,428.917908 197.760895,426.972809 200.085754,424.926239 
	C211.804276,433.414795 224.315277,434.626343 237.669479,430.407562 
	C241.288986,429.264069 245.057144,428.543213 248.796402,427.836517 
	C257.017120,426.282806 257.716736,426.777863 260.092743,434.682709 
	C263.635162,446.468079 270.307587,455.918976 282.371246,459.627045 
	C289.533234,461.828491 297.353088,461.852814 304.849915,463.029480 
	C306.601257,463.304352 309.079620,463.792542 309.797394,465.017914 
	C314.328918,472.754272 317.009277,481.164398 315.726013,490.213959 
	C314.657776,497.747467 312.232666,505.122498 311.575836,512.669312 
	C311.074707,518.427307 312.238312,524.368713 313.108582,530.161377 
	C313.224701,530.934387 315.972839,531.312012 317.502136,531.872681 
	C317.913910,530.590149 318.713257,529.294312 318.669647,528.027466 
	C318.491821,522.861694 317.350952,517.630859 317.882477,512.562195 
	C318.657684,505.170380 320.911621,497.944000 321.907898,490.562408 
	C323.226685,480.791626 320.592590,471.606354 315.509827,462.162903 
	C328.164734,462.273499 340.021149,460.085693 351.465790,463.698303 
	C355.375336,464.932373 358.440826,468.768982 361.973846,471.302277 
	C363.400970,472.325531 365.047485,473.042755 366.594177,473.899261 
	C366.880829,471.995392 368.079193,469.449860 367.278076,468.311584 
	C365.132782,465.263550 362.517059,462.196564 359.393311,460.255371 
	C351.284058,455.216217 341.959106,455.373291 332.816406,455.434265 
	C319.685730,455.521820 306.530640,456.451447 293.434113,455.892517 
	C280.203705,455.327942 271.261505,448.005585 266.967865,435.306610 
	C266.121094,432.802094 265.292969,430.280701 264.252136,427.854614 
	C262.296783,423.296814 258.865051,420.432587 253.784424,421.075775 
	C247.733322,421.841766 241.652054,422.857269 235.786026,424.490692 
	C225.392365,427.384857 215.527863,427.178131 206.025452,421.583221 
	C202.650345,419.596069 201.660950,417.283112 204.546753,413.972992 
	C208.027710,413.961517 211.057785,413.938629 214.087860,413.915710 
z"/>
<path fill="#365C3E" opacity="1.000000" stroke="none" 
	d="
M197.076477,414.097290 
	C194.022217,414.055817 190.967957,414.014343 187.460358,413.954346 
	C193.415558,406.469238 196.671677,398.161316 193.965530,388.216431 
	C192.588272,383.155090 190.380386,382.101257 185.958008,384.725586 
	C169.116806,394.719269 151.138794,394.348267 132.833313,390.514557 
	C101.803246,384.015961 79.419762,365.139313 62.471703,339.519318 
	C40.389294,306.137878 29.091131,268.795288 24.182196,229.314499 
	C31.679647,234.534393 38.751381,240.030777 46.360512,244.640030 
	C63.911095,255.271332 83.246635,260.642303 103.404083,264.124512 
	C131.070663,268.903900 157.650833,277.364136 180.596313,294.198242 
	C196.888458,306.151093 207.877457,321.955719 209.182114,342.841919 
	C209.556732,348.839355 208.964523,355.244415 207.155731,360.934967 
	C205.282562,366.828033 207.891617,370.212860 210.931000,374.675140 
	C214.316086,370.639709 216.244583,367.431915 214.320831,362.254883 
	C209.893723,350.340942 211.820312,338.398468 215.722290,326.661438 
	C224.461197,300.375000 242.513046,282.976379 267.440826,271.891541 
	C288.360657,262.588989 310.920258,259.116730 332.669800,252.775894 
	C345.657166,248.989563 358.781769,244.720993 370.680939,238.458160 
	C380.103302,233.498901 387.754547,225.174667 396.065125,218.447586 
	C395.416931,224.562027 394.993958,231.881821 393.815704,239.077957 
	C389.205170,267.236725 380.855347,294.324432 367.644745,319.593048 
	C353.384460,346.869568 334.579712,370.488617 306.323273,384.567474 
	C285.971222,394.707977 264.509857,397.184570 242.534821,389.938019 
	C238.010284,388.446014 233.799759,386.001770 229.080338,383.828735 
	C224.944473,385.724091 222.678162,389.584564 221.101425,394.147736 
	C218.892212,400.541260 216.448181,406.853699 214.096237,413.558289 
	C211.057785,413.938629 208.027710,413.961517 204.619171,413.639832 
	C206.854477,407.602081 210.090744,402.101074 211.922867,396.166565 
	C214.160843,388.917572 216.485275,382.012177 223.245850,377.392944 
	C222.096649,376.111115 221.286606,375.207581 220.160355,373.951355 
	C213.373749,387.356262 206.697113,384.225983 199.839355,373.203644 
	C198.443390,374.653076 197.462616,375.671417 196.567184,376.601135 
	C205.654907,388.711395 205.649597,402.374146 197.076477,414.097290 
M287.991974,310.132538 
	C298.275543,304.752136 308.763031,299.723969 318.798370,293.914734 
	C337.150360,283.291229 354.684753,271.519623 367.654968,254.227417 
	C369.494690,251.774643 371.975250,250.785294 373.822174,253.076263 
	C374.891663,254.402863 374.905518,258.227478 373.788666,259.405151 
	C365.924164,267.698059 357.825592,275.794189 349.418274,283.536713 
	C345.060028,287.550323 339.919189,290.714081 334.351837,294.839874 
	C339.773438,295.236237 343.996033,295.183594 348.040924,296.005615 
	C349.841461,296.371521 351.283875,298.499573 352.888824,299.827850 
	C351.192566,301.238220 349.662445,303.496613 347.762787,303.868744 
	C344.568542,304.494598 340.872711,304.718933 337.856903,303.710022 
	C326.855927,300.029846 317.287903,302.830322 308.175720,309.005585 
	C307.084778,309.744904 305.825714,310.233154 304.657166,310.861267 
	C295.784485,315.630554 286.914978,320.405731 278.044495,325.179077 
	C279.687012,326.496552 281.080933,326.861877 282.487457,326.919586 
	C291.471832,327.288116 300.457184,327.686829 309.446320,327.854492 
	C312.268799,327.907135 315.040466,328.455353 314.622803,331.501648 
	C314.391174,333.190979 311.478577,335.845001 309.839844,335.797668 
	C297.057159,335.428497 284.236328,334.976196 271.547394,333.510101 
	C266.983704,332.982819 263.499603,333.384796 260.022217,336.005920 
	C247.218735,345.656677 237.999069,358.423218 228.629349,371.412598 
	C230.288208,372.912384 231.561218,374.221619 232.989761,375.330444 
	C247.273407,386.417450 263.721161,387.125122 280.481293,384.341492 
	C302.778748,380.638275 320.173035,368.129517 335.150238,351.863434 
	C354.317657,331.046539 366.691254,306.398132 375.093903,279.661255 
	C379.045563,267.087250 382.177765,254.255692 385.681305,241.540848 
	C364.556396,253.659531 341.983643,259.022980 319.539093,264.892822 
	C304.178711,268.909943 288.636078,272.691772 273.849609,278.343842 
	C244.965332,289.384735 226.469498,310.108246 220.650909,341.038574 
	C219.162354,348.951416 221.368134,356.439117 224.699081,364.592712 
	C237.286377,346.004028 251.399902,330.510651 270.375702,320.008026 
	C272.033905,319.090240 272.920135,316.706604 274.061157,314.936920 
	C281.421631,303.521667 288.698486,292.052002 296.137634,280.688507 
	C297.742615,278.236877 300.088562,276.081604 303.185760,278.462921 
	C306.363007,280.905762 304.404907,283.249298 302.669464,285.707642 
	C297.116699,293.573456 291.740723,301.564117 286.030060,309.995544 
	C286.103760,310.249237 286.177490,310.502930 286.251190,310.756653 
	C286.603577,310.607117 286.955963,310.457611 287.991974,310.132538 
M179.226273,360.266602 
	C172.652405,355.458282 165.992996,350.760986 159.543564,345.791199 
	C156.656723,343.566650 154.275620,343.155853 150.622375,344.514618 
	C127.985252,352.934021 106.607964,349.123932 86.229942,337.086700 
	C83.214355,335.305359 81.463074,332.856750 83.460129,329.767426 
	C85.571518,326.501221 88.305885,328.479828 90.835663,329.934692 
	C94.280167,331.915558 97.748741,333.922455 101.397606,335.468231 
	C115.745232,341.546295 130.369141,342.357727 145.995239,337.458069 
	C144.463333,336.366821 143.611145,335.617401 142.638885,335.088806 
	C130.838257,328.672974 119.060326,322.213562 107.196594,315.916016 
	C89.977272,306.775635 75.235107,294.397827 61.282566,280.993256 
	C56.483166,276.382385 51.768436,271.651215 47.432735,266.615387 
	C46.500874,265.533051 46.635777,262.079285 47.613647,261.197235 
	C48.681145,260.234314 51.458744,260.533722 53.190773,261.140137 
	C54.593357,261.631195 55.553844,263.390228 56.705696,264.591370 
	C70.677406,279.160675 85.503380,292.730316 102.546989,303.695770 
	C103.968788,304.610565 105.492363,305.367157 107.529465,306.512573 
	C106.505409,295.609253 99.912750,289.355438 93.296448,282.972290 
	C92.068169,281.787292 92.262825,279.127380 91.800758,277.148163 
	C93.846657,276.937836 96.573318,275.773743 97.829231,276.670197 
	C106.737404,283.028656 114.535583,291.262604 115.295120,302.235748 
	C115.862633,310.434540 119.742424,313.362213 125.825783,315.943634 
	C125.979156,316.008698 126.139786,316.061523 126.283623,316.143555 
	C135.453690,321.372925 144.622345,326.604767 154.238083,332.091400 
	C154.416473,318.395294 150.243179,306.514435 143.596573,295.403809 
	C141.982101,292.704987 140.657761,290.206055 143.752090,288.067505 
	C147.412491,285.537720 149.025406,288.579712 150.663681,291.179108 
	C157.801712,302.504730 162.711212,314.857849 162.272675,328.192047 
	C162.007568,336.253387 165.151123,340.006744 171.227875,344.069366 
	C180.162460,350.042572 188.274734,357.245789 197.011108,364.141113 
	C201.790482,356.456482 202.550125,347.838776 200.428467,339.096252 
	C196.462143,322.752502 186.357010,310.304626 173.761444,299.779602 
	C156.017044,284.952148 134.584579,278.697876 112.516365,273.970428 
	C97.638306,270.783295 82.542671,268.215942 68.057671,263.718231 
	C56.956532,260.271240 46.657749,254.240234 36.074978,249.391876 
	C36.103649,249.944931 35.955589,251.144257 36.253887,252.219803 
	C39.479877,263.851440 42.239346,275.648285 46.160992,287.043945 
	C55.273891,313.524475 67.755989,338.202881 88.377266,357.808350 
	C109.669556,378.051758 135.133286,387.058258 164.432617,383.895691 
	C174.502258,382.808777 182.971619,377.510742 191.081955,370.692047 
	C186.995224,367.086182 183.386993,363.902496 179.226273,360.266602 
z"/>
<path fill="#21659F" opacity="1.000000" stroke="none" 
	d="
M186.240158,96.198578 
	C197.066254,75.897087 202.251175,54.205948 206.646225,32.124825 
	C208.845474,42.680637 210.474289,53.395401 213.362152,63.759331 
	C219.459824,85.642471 230.894653,104.893913 244.610901,122.787437 
	C255.631104,137.163818 267.379852,151.051132 275.245483,167.525177 
	C288.778442,195.868988 287.955872,223.852158 271.012268,250.483200 
	C257.106445,272.339630 236.205032,282.227570 210.585770,283.104584 
	C192.408340,283.726807 174.985031,281.127777 159.852600,270.469666 
	C136.870987,254.283218 126.929283,231.274719 126.825211,203.646912 
	C126.756752,185.474792 134.344635,169.742432 143.854965,155.027054 
	C150.687958,144.454330 159.064041,134.890686 166.478516,124.678513 
	C173.193344,115.429993 179.538254,105.912880 186.240158,96.198578 
M246.474258,264.062622 
	C271.097565,246.323334 278.747650,221.645493 274.994995,192.710587 
	C273.023285,177.508194 265.073395,164.638138 256.466217,152.386673 
	C247.686584,139.889725 237.465973,128.350067 229.321060,115.477119 
	C220.443054,101.445541 213.224884,86.363754 205.495102,72.130104 
	C205.381927,72.402473 204.742813,73.701248 204.291809,75.062363 
	C198.497223,92.550446 190.276154,108.772400 178.607513,123.078674 
	C166.746307,137.621048 154.266434,151.668610 145.483307,168.470963 
	C137.532135,183.681778 132.866302,199.394165 135.983994,216.814499 
	C139.476074,236.326843 147.663376,253.382446 164.933640,263.692291 
	C191.385056,279.483002 218.766144,279.208923 246.474258,264.062622 
z"/>
<path fill="#383637" opacity="1.000000" stroke="none" 
	d="
M313.690857,188.999878 
	C313.690826,176.534348 313.690826,164.568832 313.690826,152.677933 
	C300.398254,150.481735 289.138580,158.302567 286.129059,171.476822 
	C285.944763,172.283661 286.154602,173.303528 285.729034,173.903824 
	C285.069580,174.834076 284.020630,175.488174 283.136810,176.259338 
	C282.547577,175.278839 281.463348,174.306503 281.447021,173.316559 
	C281.310059,165.018585 281.369110,156.717377 281.369110,148.103455 
	C310.609406,148.103455 339.005463,148.103455 367.834778,148.103455 
	C367.834778,157.200531 367.834778,166.428589 367.834778,175.656662 
	C367.514374,175.979263 367.193939,176.301880 366.873535,176.624496 
	C365.915558,175.372284 364.387970,174.242874 364.087463,172.848923 
	C360.979706,158.433197 351.605316,151.279205 336.309052,152.390152 
	C336.309052,154.127029 336.309052,155.911453 336.309052,157.695877 
	C336.308990,180.350891 336.294922,203.005936 336.329926,225.660904 
	C336.333496,227.981918 336.692047,230.300171 336.779510,232.623703 
	C336.984283,238.065399 339.881073,240.649811 345.197083,241.168335 
	C347.222717,241.365921 349.171478,242.351898 351.155273,242.978546 
	C350.974182,243.553345 350.793091,244.128143 350.612000,244.702942 
	C333.729340,244.702942 316.846680,244.702942 299.963989,244.702942 
	C299.755249,244.246170 299.546509,243.789413 299.337769,243.332642 
	C300.712189,242.643768 302.017761,241.620590 303.472351,241.321136 
	C311.910980,239.583878 313.258514,238.558167 313.482727,229.973221 
	C313.834839,216.489487 313.648956,202.991714 313.690857,188.999878 
z"/>
<path fill="#383637" opacity="1.000000" stroke="none" 
	d="
M81.002968,207.000000 
	C81.002983,192.011917 81.007126,177.523849 81.001259,163.035782 
	C80.997963,154.907272 78.941856,152.531952 70.913513,151.069717 
	C69.821716,150.870880 68.834457,150.098114 67.798798,149.591064 
	C68.897095,148.988739 69.991241,147.871002 71.094337,147.862106 
	C85.581535,147.745132 100.070190,147.754440 114.557747,147.847336 
	C115.614021,147.854111 116.664589,148.751190 117.717819,149.234344 
	C116.782936,149.834839 115.907494,150.820816 114.903870,150.975601 
	C105.872475,152.368317 104.039963,154.445984 104.037598,163.730194 
	C104.031998,185.712143 104.025337,207.694077 104.041000,229.676025 
	C104.046921,237.995514 105.594002,239.748566 113.696266,241.306885 
	C115.236984,241.603226 116.657944,242.522278 118.134163,243.154022 
	C117.960175,243.666336 117.786179,244.178650 117.612190,244.690964 
	C101.085106,244.690964 84.558022,244.690964 68.030945,244.690964 
	C67.810539,244.248978 67.590134,243.806976 67.369736,243.364990 
	C68.737534,242.628296 70.027252,241.529678 71.486092,241.214966 
	C79.617393,239.460846 80.993782,237.862610 81.001450,229.481827 
	C81.008156,222.154556 81.002892,214.827271 81.002968,207.000000 
z"/>
<path fill="#3D3C3C" opacity="1.000000" stroke="none" 
	d="
M141.098373,577.951721 
	C138.997253,577.951721 137.334579,577.951721 135.511108,577.951721 
	C139.306717,574.503540 139.907898,555.732971 136.205612,551.010925 
	C141.909210,551.010925 147.418762,550.380859 152.669556,551.273193 
	C155.347366,551.728333 159.365540,554.776428 159.531006,556.904846 
	C159.741989,559.618347 156.668610,562.587097 154.517258,566.297241 
	C156.595016,569.149048 159.588989,573.258423 162.664398,577.479553 
	C157.554764,579.033508 154.083344,577.585754 151.653763,572.960815 
	C150.163696,570.124268 148.068512,567.605713 146.245056,564.944336 
	C145.671036,565.146179 145.097031,565.348083 144.523026,565.549927 
	C145.221115,569.726685 145.919205,573.903381 146.595840,577.951721 
	C145.865662,577.951721 143.701248,577.951721 141.098373,577.951721 
M148.242920,551.944580 
	C147.165634,552.780701 145.285248,553.511597 145.159424,554.472229 
	C144.758820,557.531250 145.011032,560.675720 145.011032,563.792603 
	C148.853378,564.364990 151.947601,563.762390 152.740372,559.922729 
	C153.411346,556.672974 153.490402,553.153259 148.242920,551.944580 
z"/>
<path fill="#3C3B3B" opacity="1.000000" stroke="none" 
	d="
M189.894226,555.692383 
	C189.157578,553.935669 188.431732,552.595703 187.660233,551.171509 
	C189.039398,551.171509 190.868134,551.171509 191.996399,551.171509 
	C191.996399,559.964172 191.996399,568.928223 191.996399,577.892212 
	C191.446945,578.052307 190.897476,578.212341 190.348022,578.372437 
	C184.264130,571.356812 178.180237,564.341125 171.529282,556.671631 
	C171.529282,564.124207 171.529282,570.601074 171.529282,577.710938 
	C170.702438,577.761780 169.424927,577.840332 167.841202,577.937683 
	C171.221344,571.899719 170.587036,555.262573 167.059219,551.273071 
	C172.042664,549.807983 175.801376,551.072327 178.904770,555.421875 
	C181.867554,559.574402 185.436981,563.294067 189.905029,567.053284 
	C189.905029,563.405212 189.905029,559.757202 189.894226,555.692383 
z"/>
<path fill="#3C3B3B" opacity="1.000000" stroke="none" 
	d="
M70.164200,550.874512 
	C70.043823,556.700928 69.483070,562.497192 69.127686,568.306091 
	C68.935349,571.450012 69.093422,574.615295 69.093422,579.313477 
	C62.205967,571.343872 56.146767,564.332703 49.567959,556.720215 
	C49.567959,564.183716 49.567959,570.821289 49.567959,577.729736 
	C48.558208,577.729736 47.340450,577.729736 46.930859,577.729736 
	C47.826118,568.677124 49.584869,559.831604 45.732281,551.054810 
	C50.052883,549.865601 53.876137,551.109619 56.982071,555.525452 
	C59.899689,559.673584 63.453979,563.373901 67.289238,567.059265 
	C67.105133,561.701050 69.732101,556.137573 65.357964,550.849670 
	C66.732727,550.849670 68.271057,550.849670 70.164200,550.874512 
z"/>
<path fill="#3D3B3C" opacity="1.000000" stroke="none" 
	d="
M95.362862,552.094971 
	C93.996086,552.885071 92.252861,553.711243 92.216263,554.607117 
	C91.972107,560.584839 91.918121,566.585693 92.200386,572.560181 
	C92.284904,574.349121 93.638893,576.078064 94.387634,577.780762 
	C90.986717,577.780762 86.921028,577.780762 83.268509,577.780762 
	C88.225723,569.845886 84.322021,560.957947 85.861641,552.404968 
	C80.610062,551.126404 78.531387,554.161560 76.389893,559.259460 
	C76.389893,555.579224 76.389893,553.569946 76.389893,551.197937 
	C84.474503,551.197937 92.531670,551.197937 100.913589,551.197937 
	C100.913589,553.189514 100.913589,555.261108 100.913589,557.014648 
	C99.348213,555.536499 97.562050,553.849915 95.362862,552.094971 
z"/>
<path fill="#3C3B3C" opacity="1.000000" stroke="none" 
	d="
M231.126404,550.844971 
	C237.560913,550.847534 243.513031,550.847534 249.756317,550.847534 
	C249.756317,553.203064 249.756317,555.283936 249.756317,557.822266 
	C247.735977,554.638123 246.229996,550.762695 241.468369,552.198059 
	C239.555450,564.693481 240.656937,575.403259 244.307892,577.819580 
	C239.865845,577.819580 235.618469,577.819580 231.928223,577.819580 
	C232.756531,576.307007 234.447083,574.601135 234.532532,572.818359 
	C234.857346,566.041748 234.663437,559.240356 234.663437,552.378967 
	C229.780228,550.994690 227.494537,553.850830 225.282898,558.315369 
	C225.282898,555.277344 225.282898,553.389404 225.282898,550.842407 
	C227.105316,550.842407 228.874680,550.842407 231.126404,550.844971 
z"/>
<path fill="#424141" opacity="1.000000" stroke="none" 
	d="
M345.950684,560.175049 
	C347.036346,556.802734 348.122040,553.430359 349.637360,548.723511 
	C354.485718,559.339905 358.686340,568.537903 362.884338,577.730164 
	C359.520050,577.730164 355.620422,577.730164 351.686310,577.730164 
	C355.176453,576.320557 354.498322,573.862549 353.073425,571.417664 
	C351.719025,569.093689 344.250641,569.443542 339.879181,572.462646 
	C341.293640,569.502258 342.348145,567.295227 343.806885,565.339722 
	C344.520081,572.115540 348.815887,567.452637 352.102203,569.249268 
	C350.495270,565.431152 349.515747,562.866211 348.285278,560.427917 
	C348.093445,560.047729 346.757538,560.244873 345.950684,560.175049 
z"/>
<path fill="#3E3D3D" opacity="1.000000" stroke="none" 
	d="
M309.263916,556.962097 
	C308.538025,555.084290 307.812103,553.206421 307.101288,551.367615 
	C313.689972,550.054932 313.691956,550.072021 318.128326,555.370361 
	C321.302979,559.161743 324.521179,562.916565 328.033478,567.247681 
	C329.143646,567.884705 329.940247,567.961731 330.736877,568.038696 
	C330.803253,570.727173 330.869598,573.415649 330.692078,576.669250 
	C330.219116,577.436096 330.069153,577.685364 329.998322,577.982239 
	C323.921265,571.103333 317.844208,564.224365 311.151978,557.187012 
	C310.112488,557.006470 309.688202,556.984314 309.263916,556.962097 
z"/>
<path fill="#3F403F" opacity="1.000000" stroke="none" 
	d="
M37.022476,560.155273 
	C37.022472,564.280762 36.765373,567.953674 37.117706,571.567200 
	C37.332867,573.773804 38.485229,575.889160 39.166637,577.898010 
	C35.986126,577.898010 31.846777,577.898010 27.648504,577.898010 
	C30.883757,574.477722 31.426018,555.908325 28.330349,551.066406 
	C31.888107,551.066406 35.297264,551.066406 37.967209,551.066406 
	C37.653053,553.929810 37.337738,556.803772 37.022476,560.155273 
z"/>
<path fill="#3F3E3E" opacity="1.000000" stroke="none" 
	d="
M204.637314,570.015442 
	C203.361298,570.372314 202.501205,570.719666 200.997711,571.326843 
	C201.937927,569.320007 202.593216,567.921326 202.826340,567.423767 
	C205.866318,568.063110 208.628738,568.644043 212.657425,569.491272 
	C210.950027,565.307007 209.744492,562.352539 208.413742,559.091309 
	C207.362915,559.845581 206.526764,560.445801 205.690598,561.045959 
	C205.468994,560.869080 205.247375,560.692200 205.025757,560.515320 
	C206.705414,557.124817 208.385071,553.734375 210.464203,549.537537 
	C214.928741,559.330811 219.132950,568.552917 223.292206,577.676514 
	C220.351151,577.676514 216.551559,577.676514 213.696609,577.676514 
	C213.830917,575.931458 214.530563,573.976257 213.921890,572.599670 
	C213.389282,571.395203 211.479889,570.496460 210.006348,570.094299 
	C208.462296,569.672852 206.712891,570.003784 204.637314,570.015442 
z"/>
<path fill="#3A3839" opacity="1.000000" stroke="none" 
	d="
M108.063019,576.161987 
	C109.157036,567.754639 109.560440,559.372498 107.702202,551.012695 
	C114.253105,551.012695 121.358566,551.012695 128.729126,551.012695 
	C128.729126,553.253479 128.729126,555.341797 128.729126,556.163635 
	C126.237732,554.950256 123.302818,553.038452 120.084023,552.077698 
	C116.235367,550.928955 114.589523,552.961304 115.113922,556.924744 
	C115.329979,558.557678 115.144989,560.243591 115.081573,562.737061 
	C115.033554,564.091492 115.046356,564.614380 115.059166,565.137207 
	C115.059166,569.176636 115.059166,573.216064 115.059166,577.925781 
	C113.331039,577.925781 111.102547,577.925781 108.470078,577.591797 
	C108.065071,576.892517 108.064041,576.527283 108.063019,576.161987 
z"/>
<path fill="#3B393A" opacity="1.000000" stroke="none" 
	d="
M259.298645,577.945679 
	C257.541229,577.945679 256.213196,577.945679 254.731827,577.945679 
	C258.677826,575.023376 259.558716,555.755859 255.933182,551.062073 
	C259.358521,551.062073 262.620667,551.062073 265.909546,551.062073 
	C262.770050,556.730835 263.686310,574.660706 267.905243,577.945679 
	C264.752441,577.945679 262.240234,577.945679 259.298645,577.945679 
z"/>
<path fill="#403F3F" opacity="1.000000" stroke="none" 
	d="
M294.400269,567.700500 
	C294.676331,561.447144 294.789307,555.654785 289.712738,551.550537 
	C293.339844,550.800903 296.354126,552.076050 299.129364,555.913635 
	C302.412109,560.453003 303.056854,565.435669 300.537903,570.450378 
	C298.162140,575.180054 294.373871,578.120178 289.904602,578.048523 
	C291.299713,574.899109 292.795898,571.521484 294.400269,567.700500 
z"/>
<path fill="#393738" opacity="1.000000" stroke="none" 
	d="
M378.965759,577.806763 
	C376.613586,577.845764 374.261353,577.884705 371.489380,577.590576 
	C371.067566,576.891113 371.065491,576.524658 371.063446,576.158264 
	C372.248749,567.759644 372.590698,559.394470 370.769745,551.011169 
	C373.357391,551.011169 376.644897,551.011169 379.513184,551.011169 
	C376.960266,559.114624 378.325836,567.317017 378.694702,576.088013 
	C378.921722,577.087585 378.943756,577.447144 378.965759,577.806763 
z"/>
<path fill="#3F3E3E" opacity="1.000000" stroke="none" 
	d="
M272.346863,566.478760 
	C272.092987,557.204895 276.696289,551.272400 283.715790,551.299988 
	C277.791840,559.208313 278.170990,571.566345 284.527985,577.774170 
	C278.250183,577.569214 274.437317,574.125977 272.346863,566.478760 
z"/>
<path fill="#EAECEA" opacity="1.000000" stroke="none" 
	d="
M345.730957,560.421631 
	C346.757538,560.244873 348.093445,560.047729 348.285278,560.427917 
	C349.515747,562.866211 350.495270,565.431152 352.102203,569.249268 
	C348.815887,567.452637 344.520081,572.115540 344.127808,565.154663 
	C344.533417,563.368225 345.022339,562.018250 345.730957,560.421631 
z"/>
<path fill="#555555" opacity="1.000000" stroke="none" 
	d="
M309.166870,557.423950 
	C309.688202,556.984314 310.112488,557.006470 310.854431,557.055847 
	C311.122253,562.039734 310.878174,567.005798 311.119171,571.948303 
	C311.214264,573.897644 312.390991,575.794373 313.092529,577.763733 
	C311.330505,577.763733 308.684814,577.763733 307.163422,577.763733 
	C307.756897,575.865173 308.820496,573.844055 308.950562,571.764587 
	C309.238922,567.153931 309.058868,562.513916 309.166870,557.423950 
z"/>
<path fill="#565555" opacity="1.000000" stroke="none" 
	d="
M330.834015,567.578857 
	C329.940247,567.961731 329.143646,567.884705 328.153625,567.576294 
	C330.150818,561.734375 329.306793,553.716370 325.954956,551.019348 
	C328.362000,551.019348 330.458862,551.019348 331.552948,551.019348 
	C331.347565,556.336670 331.139374,561.727844 330.834015,567.578857 
z"/>
<path fill="#474847" opacity="1.000000" stroke="none" 
	d="
M115.428253,564.946289 
	C115.046356,564.614380 115.033554,564.091492 115.057297,563.177490 
	C118.998459,563.789856 121.343117,562.089905 122.830742,558.458801 
	C122.830742,562.288818 122.830742,566.118896 122.830742,568.642883 
	C120.790230,567.515076 118.293785,566.135254 115.428253,564.946289 
z"/>
<path fill="#535253" opacity="1.000000" stroke="none" 
	d="
M119.557602,576.899536 
	C122.604462,576.256775 125.245850,575.623047 128.578308,574.823486 
	C128.562317,574.777527 129.316269,575.927002 129.161026,576.936768 
	C129.085220,577.429810 127.325882,577.925293 126.310829,577.964966 
	C123.006592,578.093933 119.694153,578.013123 116.315765,577.220459 
	C117.261223,577.116516 118.206680,577.012512 119.557602,576.899536 
z"/>
<path fill="#545454" opacity="1.000000" stroke="none" 
	d="
M379.423523,577.898315 
	C378.943756,577.447144 378.921722,577.087585 378.913086,576.458130 
	C383.289215,575.954651 387.651978,575.721069 392.885071,575.440918 
	C391.660004,576.337585 390.576782,577.768738 389.352905,577.901367 
	C386.229187,578.239746 383.042694,577.998901 379.423523,577.898315 
z"/>
<path fill="#535253" opacity="1.000000" stroke="none" 
	d="
M107.767578,576.300415 
	C108.064041,576.527283 108.065071,576.892517 108.049072,577.531494 
	C107.256363,577.872070 106.480675,577.938904 104.458817,578.113098 
	C106.157005,577.169617 106.814575,576.804260 107.767578,576.300415 
z"/>
<path fill="#545454" opacity="1.000000" stroke="none" 
	d="
M370.767212,576.295471 
	C371.065491,576.524658 371.067566,576.891113 371.052063,577.532104 
	C370.258606,577.874756 369.482697,577.942688 367.470947,578.118896 
	C369.156891,577.171326 369.813934,576.802002 370.767212,576.295471 
z"/>
<path fill="#F9FAFA" opacity="1.000000" stroke="none" 
	d="
M285.447693,551.534790 
	C285.412018,551.476318 285.483337,551.593262 285.447693,551.534790 
z"/>
<path fill="#565555" opacity="1.000000" stroke="none" 
	d="
M330.294250,578.040527 
	C330.069153,577.685364 330.219116,577.436096 330.633850,577.114746 
	C330.743103,577.362976 330.666626,577.730957 330.294250,578.040527 
z"/>
<path fill="#FAFAF9" opacity="1.000000" stroke="none" 
	d="
M197.023560,414.462372 
	C205.649597,402.374146 205.654907,388.711395 196.567184,376.601135 
	C197.462616,375.671417 198.443390,374.653076 199.839355,373.203644 
	C206.697113,384.225983 213.373749,387.356262 220.160355,373.951355 
	C221.286606,375.207581 222.096649,376.111115 223.245850,377.392944 
	C216.485275,382.012177 214.160843,388.917572 211.922867,396.166565 
	C210.090744,402.101074 206.854477,407.602081 204.168289,413.628418 
	C201.660950,417.283112 202.650345,419.596069 206.025452,421.583221 
	C215.527863,427.178131 225.392365,427.384857 235.786026,424.490692 
	C241.652054,422.857269 247.733322,421.841766 253.784424,421.075775 
	C258.865051,420.432587 262.296783,423.296814 264.252136,427.854614 
	C265.292969,430.280701 266.121094,432.802094 266.967865,435.306610 
	C271.261505,448.005585 280.203705,455.327942 293.434113,455.892517 
	C306.530640,456.451447 319.685730,455.521820 332.816406,455.434265 
	C341.959106,455.373291 351.284058,455.216217 359.393311,460.255371 
	C362.517059,462.196564 365.132782,465.263550 367.278076,468.311584 
	C368.079193,469.449860 366.880829,471.995392 366.594177,473.899261 
	C365.047485,473.042755 363.400970,472.325531 361.973846,471.302277 
	C358.440826,468.768982 355.375336,464.932373 351.465790,463.698303 
	C340.021149,460.085693 328.164734,462.273499 315.509827,462.162903 
	C320.592590,471.606354 323.226685,480.791626 321.907898,490.562408 
	C320.911621,497.944000 318.657684,505.170380 317.882477,512.562195 
	C317.350952,517.630859 318.491821,522.861694 318.669647,528.027466 
	C318.713257,529.294312 317.913910,530.590149 317.502136,531.872681 
	C315.972839,531.312012 313.224701,530.934387 313.108582,530.161377 
	C312.238312,524.368713 311.074707,518.427307 311.575836,512.669312 
	C312.232666,505.122498 314.657776,497.747467 315.726013,490.213959 
	C317.009277,481.164398 314.328918,472.754272 309.797394,465.017914 
	C309.079620,463.792542 306.601257,463.304352 304.849915,463.029480 
	C297.353088,461.852814 289.533234,461.828491 282.371246,459.627045 
	C270.307587,455.918976 263.635162,446.468079 260.092743,434.682709 
	C257.716736,426.777863 257.017120,426.282806 248.796402,427.836517 
	C245.057144,428.543213 241.288986,429.264069 237.669479,430.407562 
	C224.315277,434.626343 211.804276,433.414795 200.085754,424.926239 
	C197.760895,426.972809 195.319977,428.917908 193.156876,431.134155 
	C192.381729,431.928375 191.872406,433.397308 191.928680,434.523987 
	C192.546204,446.889709 197.662094,456.259277 213.043320,457.097656 
	C221.308167,457.548157 229.628769,458.487152 237.725235,460.165527 
	C250.203339,462.752197 254.553741,470.688019 251.198914,483.114929 
	C250.895889,484.237427 250.565964,485.352753 250.240875,486.469208 
	C246.823730,498.204529 247.103058,498.858734 256.640381,506.771301 
	C257.674255,507.629059 257.699066,509.703125 258.191925,511.213013 
	C256.607971,511.463989 254.725891,512.396973 253.488083,511.855988 
	C245.040878,508.163849 240.696136,498.522858 243.029678,489.535065 
	C244.150070,485.219788 245.351181,480.899994 246.053864,476.508331 
	C246.879196,471.350098 244.028290,467.954529 239.258652,467.088379 
	C229.972992,465.402191 220.441086,464.920319 211.266907,462.821716 
	C204.336075,461.236298 200.977615,463.610260 197.923508,469.421448 
	C195.812378,473.438354 192.449722,476.961761 189.100525,480.128387 
	C182.797226,486.088104 178.561600,492.823853 178.036957,501.731689 
	C177.953033,503.156433 175.990646,504.470551 174.896667,505.835815 
	C173.935165,504.326691 172.199783,502.848114 172.138763,501.303406 
	C171.765259,491.850250 176.431335,484.594299 182.625351,477.906952 
	C187.881958,472.231689 192.665771,466.118500 197.471313,460.421326 
	C194.028839,455.698120 190.795792,452.259186 188.781464,448.213501 
	C186.831589,444.297241 186.135635,439.756653 184.837051,435.312805 
	C174.120697,438.000916 163.323135,441.030334 152.375122,443.349396 
	C144.287048,445.062653 135.992493,445.785767 127.815392,447.107666 
	C126.300613,447.352539 124.688667,448.077179 123.492287,449.040680 
	C113.531052,457.062988 107.707603,467.430145 104.855858,479.953522 
	C103.300018,486.785980 100.293358,493.405151 97.149704,499.727020 
	C93.818588,506.425873 87.418732,509.200012 80.333611,510.957123 
	C69.758430,513.579773 59.316883,516.739014 48.803738,519.616028 
	C46.479759,520.252014 43.568626,522.767395 42.118244,518.760010 
	C40.878544,515.334656 43.919796,514.547546 46.281693,513.865356 
	C56.909065,510.796173 67.474792,507.426392 78.247017,504.974670 
	C86.235252,503.156616 92.040268,499.446899 94.696732,491.573181 
	C96.599403,485.933685 98.535057,480.283691 99.998215,474.522156 
	C102.780128,463.567688 108.273819,454.309540 116.907204,446.597839 
	C111.447495,444.077148 106.432045,441.649567 101.324593,439.434113 
	C95.921257,437.090240 91.114738,438.679321 86.249908,441.557098 
	C78.546783,446.113831 70.597198,450.257568 62.701996,454.482819 
	C61.111240,455.334137 59.326508,456.151245 57.578766,456.281769 
	C56.058994,456.395233 54.465107,455.516083 52.903969,455.075623 
	C53.818878,453.604309 54.410652,451.653351 55.721718,450.770050 
	C57.882996,449.313995 60.603657,448.721436 62.921955,447.458984 
	C69.901230,443.658325 76.921494,439.908325 83.695404,435.762207 
	C90.117462,431.831482 97.265427,429.907928 103.518097,433.848633 
	C119.541496,443.947357 135.889221,441.207062 152.561386,437.002747 
	C161.872986,434.654572 171.258728,432.565155 180.480148,429.905273 
	C188.309799,427.646851 195.600433,424.355591 197.023560,414.462372 
z"/>
<path fill="#FDFDFD" opacity="1.000000" stroke="none" 
	d="
M286.296509,309.506561 
	C291.740723,301.564117 297.116699,293.573456 302.669464,285.707642 
	C304.404907,283.249298 306.363007,280.905762 303.185760,278.462921 
	C300.088562,276.081604 297.742615,278.236877 296.137634,280.688507 
	C288.698486,292.052002 281.421631,303.521667 274.061157,314.936920 
	C272.920135,316.706604 272.033905,319.090240 270.375702,320.008026 
	C251.399902,330.510651 237.286377,346.004028 224.699081,364.592712 
	C221.368134,356.439117 219.162354,348.951416 220.650909,341.038574 
	C226.469498,310.108246 244.965332,289.384735 273.849609,278.343842 
	C288.636078,272.691772 304.178711,268.909943 319.539093,264.892822 
	C341.983643,259.022980 364.556396,253.659531 385.681305,241.540848 
	C382.177765,254.255692 379.045563,267.087250 375.093903,279.661255 
	C366.691254,306.398132 354.317657,331.046539 335.150238,351.863434 
	C320.173035,368.129517 302.778748,380.638275 280.481293,384.341492 
	C263.721161,387.125122 247.273407,386.417450 232.989761,375.330444 
	C231.561218,374.221619 230.288208,372.912384 228.629349,371.412598 
	C237.999069,358.423218 247.218735,345.656677 260.022217,336.005920 
	C263.499603,333.384796 266.983704,332.982819 271.547394,333.510101 
	C284.236328,334.976196 297.057159,335.428497 309.839844,335.797668 
	C311.478577,335.845001 314.391174,333.190979 314.622803,331.501648 
	C315.040466,328.455353 312.268799,327.907135 309.446320,327.854492 
	C300.457184,327.686829 291.471832,327.288116 282.487457,326.919586 
	C281.080933,326.861877 279.687012,326.496552 278.044495,325.179077 
	C286.914978,320.405731 295.784485,315.630554 304.657166,310.861267 
	C305.825714,310.233154 307.084778,309.744904 308.175720,309.005585 
	C317.287903,302.830322 326.855927,300.029846 337.856903,303.710022 
	C340.872711,304.718933 344.568542,304.494598 347.762787,303.868744 
	C349.662445,303.496613 351.192566,301.238220 352.888824,299.827850 
	C351.283875,298.499573 349.841461,296.371521 348.040924,296.005615 
	C343.996033,295.183594 339.773438,295.236237 334.351837,294.839874 
	C339.919189,290.714081 345.060028,287.550323 349.418274,283.536713 
	C357.825592,275.794189 365.924164,267.698059 373.788666,259.405151 
	C374.905518,258.227478 374.891663,254.402863 373.822174,253.076263 
	C371.975250,250.785294 369.494690,251.774643 367.654968,254.227417 
	C354.684753,271.519623 337.150360,283.291229 318.798370,293.914734 
	C308.763031,299.723969 298.275543,304.752136 287.407898,310.006409 
	C286.648071,309.755707 286.472290,309.631134 286.296509,309.506561 
z"/>
<path fill="#FCFCFC" opacity="1.000000" stroke="none" 
	d="
M179.502518,360.492737 
	C183.386993,363.902496 186.995224,367.086182 191.081955,370.692047 
	C182.971619,377.510742 174.502258,382.808777 164.432617,383.895691 
	C135.133286,387.058258 109.669556,378.051758 88.377266,357.808350 
	C67.755989,338.202881 55.273891,313.524475 46.160992,287.043945 
	C42.239346,275.648285 39.479877,263.851440 36.253887,252.219803 
	C35.955589,251.144257 36.103649,249.944931 36.074978,249.391876 
	C46.657749,254.240234 56.956532,260.271240 68.057671,263.718231 
	C82.542671,268.215942 97.638306,270.783295 112.516365,273.970428 
	C134.584579,278.697876 156.017044,284.952148 173.761444,299.779602 
	C186.357010,310.304626 196.462143,322.752502 200.428467,339.096252 
	C202.550125,347.838776 201.790482,356.456482 197.011108,364.141113 
	C188.274734,357.245789 180.162460,350.042572 171.227875,344.069366 
	C165.151123,340.006744 162.007568,336.253387 162.272675,328.192047 
	C162.711212,314.857849 157.801712,302.504730 150.663681,291.179108 
	C149.025406,288.579712 147.412491,285.537720 143.752090,288.067505 
	C140.657761,290.206055 141.982101,292.704987 143.596573,295.403809 
	C150.243179,306.514435 154.416473,318.395294 154.238083,332.091400 
	C144.622345,326.604767 135.453690,321.372925 126.283623,316.143555 
	C126.139786,316.061523 125.979156,316.008698 125.825783,315.943634 
	C119.742424,313.362213 115.862633,310.434540 115.295120,302.235748 
	C114.535583,291.262604 106.737404,283.028656 97.829231,276.670197 
	C96.573318,275.773743 93.846657,276.937836 91.800758,277.148163 
	C92.262825,279.127380 92.068169,281.787292 93.296448,282.972290 
	C99.912750,289.355438 106.505409,295.609253 107.529465,306.512573 
	C105.492363,305.367157 103.968788,304.610565 102.546989,303.695770 
	C85.503380,292.730316 70.677406,279.160675 56.705696,264.591370 
	C55.553844,263.390228 54.593357,261.631195 53.190773,261.140137 
	C51.458744,260.533722 48.681145,260.234314 47.613647,261.197235 
	C46.635777,262.079285 46.500874,265.533051 47.432735,266.615387 
	C51.768436,271.651215 56.483166,276.382385 61.282566,280.993256 
	C75.235107,294.397827 89.977272,306.775635 107.196594,315.916016 
	C119.060326,322.213562 130.838257,328.672974 142.638885,335.088806 
	C143.611145,335.617401 144.463333,336.366821 145.995239,337.458069 
	C130.369141,342.357727 115.745232,341.546295 101.397606,335.468231 
	C97.748741,333.922455 94.280167,331.915558 90.835663,329.934692 
	C88.305885,328.479828 85.571518,326.501221 83.460129,329.767426 
	C81.463074,332.856750 83.214355,335.305359 86.229942,337.086700 
	C106.607964,349.123932 127.985252,352.934021 150.622375,344.514618 
	C154.275620,343.155853 156.656723,343.566650 159.543564,345.791199 
	C165.992996,350.760986 172.652405,355.458282 179.502518,360.492737 
z"/>
<path fill="#FDFDFD" opacity="1.000000" stroke="none" 
	d="
M287.066101,310.094177 
	C286.955963,310.457611 286.603577,310.607117 286.251190,310.756653 
	C286.177490,310.502930 286.103760,310.249237 286.163269,309.751038 
	C286.472290,309.631134 286.648071,309.755707 287.066101,310.094177 
z"/>
<path fill="#FDFEFE" opacity="1.000000" stroke="none" 
	d="
M246.195129,264.292847 
	C218.766144,279.208923 191.385056,279.483002 164.933640,263.692291 
	C147.663376,253.382446 139.476074,236.326843 135.983994,216.814499 
	C132.866302,199.394165 137.532135,183.681778 145.483307,168.470963 
	C154.266434,151.668610 166.746307,137.621048 178.607513,123.078674 
	C190.276154,108.772400 198.497223,92.550446 204.291809,75.062363 
	C204.742813,73.701248 205.381927,72.402473 205.495102,72.130104 
	C213.224884,86.363754 220.443054,101.445541 229.321060,115.477119 
	C237.465973,128.350067 247.686584,139.889725 256.466217,152.386673 
	C265.073395,164.638138 273.023285,177.508194 274.994995,192.710587 
	C278.747650,221.645493 271.097565,246.323334 246.195129,264.292847 
M161.300369,168.955765 
	C154.985077,180.916687 152.401810,193.453156 154.795395,206.968658 
	C158.488449,227.821625 172.474380,242.388931 193.439941,246.801788 
	C213.773911,251.081726 233.645447,243.348526 245.128769,226.558029 
	C243.993393,225.667130 242.846695,224.767349 241.501511,223.711838 
	C239.862381,225.278824 238.494965,227.042603 236.727936,228.192017 
	C230.803482,232.045731 225.137161,236.743393 218.645432,239.190430 
	C202.078506,245.435272 185.204254,236.207306 181.613663,219.028946 
	C178.135193,202.387100 178.120956,185.992035 182.416946,169.704117 
	C187.413879,150.758499 205.111984,144.281174 221.369278,155.197647 
	C228.999237,160.320999 234.152954,167.610413 238.078064,175.868408 
	C238.793076,177.372726 240.547089,178.383209 241.821472,179.621658 
	C242.146530,179.261292 242.471603,178.900940 242.796661,178.540573 
	C242.796661,167.759064 242.796661,156.977554 242.796661,144.483170 
	C240.569809,146.461639 238.894699,147.332870 238.177612,148.704834 
	C236.173050,152.540039 233.370926,153.458939 229.514099,151.937561 
	C227.820831,151.269623 226.126862,150.603256 224.438828,149.922256 
	C200.120819,140.112000 176.856857,146.955429 161.300369,168.955765 
z"/>
<path fill="#F9FAF9" opacity="1.000000" stroke="none" 
	d="
M148.668274,551.961243 
	C153.490402,553.153259 153.411346,556.672974 152.740372,559.922729 
	C151.947601,563.762390 148.853378,564.364990 145.011032,563.792603 
	C145.011032,560.675720 144.758820,557.531250 145.159424,554.472229 
	C145.285248,553.511597 147.165634,552.780701 148.668274,551.961243 
z"/>
<path fill="#393838" opacity="1.000000" stroke="none" 
	d="
M161.522491,168.661407 
	C176.856857,146.955429 200.120819,140.112000 224.438828,149.922256 
	C226.126862,150.603256 227.820831,151.269623 229.514099,151.937561 
	C233.370926,153.458939 236.173050,152.540039 238.177612,148.704834 
	C238.894699,147.332870 240.569809,146.461639 242.796661,144.483170 
	C242.796661,156.977554 242.796661,167.759064 242.796661,178.540573 
	C242.471603,178.900940 242.146530,179.261292 241.821472,179.621658 
	C240.547089,178.383209 238.793076,177.372726 238.078064,175.868408 
	C234.152954,167.610413 228.999237,160.320999 221.369278,155.197647 
	C205.111984,144.281174 187.413879,150.758499 182.416946,169.704117 
	C178.120956,185.992035 178.135193,202.387100 181.613663,219.028946 
	C185.204254,236.207306 202.078506,245.435272 218.645432,239.190430 
	C225.137161,236.743393 230.803482,232.045731 236.727936,228.192017 
	C238.494965,227.042603 239.862381,225.278824 241.501511,223.711838 
	C242.846695,224.767349 243.993393,225.667130 245.128769,226.558029 
	C233.645447,243.348526 213.773911,251.081726 193.439941,246.801788 
	C172.474380,242.388931 158.488449,227.821625 154.795395,206.968658 
	C152.401810,193.453156 154.985077,180.916687 161.522491,168.661407 
z"/>
</svg>